<?xml version="1.0" encoding="UTF-8" standalone="no"?>
<svg
  width="24"
  height="24"
  viewBox="0 0 24 24"
  xmlns="http://www.w3.org/2000/svg">
  <path
    style="stroke:none;stroke-opacity:1;fill:#339af0;fill-opacity:1"
    d="M 12,0 C 7.802004,0 4,3.4025667 4,7.601562 4,13.844556 10.377002,14.505009 12,24 13.622998,14.505009 20,13.844556 20,7.601562 20,3.4025667 16.198996,0 12,0 Z" />
  <path
    style="color:#000000;fill:#ffffff;fill-opacity:1"
    d="M 12 0 C 7.8020082 0 4 3.4025709 4 7.6015625 C 4 13.84455 10.377004 14.505018 12 24 C 13.622996 14.505018 20 13.84455 20 7.6015625 C 20 3.4025709 16.198992 0 12 0 z M 12 1 C 15.658769 1 19 4.0060522 19 7.6015625 C 19 10.382565 17.657331 11.785613 15.84375 13.9375 C 14.532432 15.49343 13.048922 17.409016 12 20.208984 C 10.951078 17.409016 9.4675673 15.49343 8.15625 13.9375 C 6.342669 11.785613 5 10.382565 5 7.6015625 C 5 4.006211 8.3423594 1 12 1 z " />
</svg>
