<?xml version="1.0" encoding="UTF-8" standalone="no"?>
<!-- Created with Inkscape (http://www.inkscape.org/) -->

<svg
   width="24"
   height="24"
   viewBox="0 0 48 48"
   version="1.1"
   id="svg3010"
   inkscape:version="1.2 (dc2aeda, 2022-05-15)"
   sodipodi:docname="square2.svg"
   xmlns:inkscape="http://www.inkscape.org/namespaces/inkscape"
   xmlns:sodipodi="http://sodipodi.sourceforge.net/DTD/sodipodi-0.dtd"
   xmlns="http://www.w3.org/2000/svg"
   xmlns:svg="http://www.w3.org/2000/svg">
  <sodipodi:namedview
     id="namedview3012"
     pagecolor="#505050"
     bordercolor="#eeeeee"
     borderopacity="1"
     inkscape:showpageshadow="0"
     inkscape:pageopacity="0"
     inkscape:pagecheckerboard="0"
     inkscape:deskcolor="#505050"
     inkscape:document-units="px"
     showgrid="false"
     inkscape:zoom="19.232766"
     inkscape:cx="24.931411"
     inkscape:cy="26.075293"
     inkscape:window-width="2560"
     inkscape:window-height="1387"
     inkscape:window-x="0"
     inkscape:window-y="25"
     inkscape:window-maximized="0"
     inkscape:current-layer="layer1" />
  <defs
     id="defs3007" />
  <g
     inkscape:label="Layer 1"
     inkscape:groupmode="layer"
     id="layer1">
    <rect
       style="fill:#b197fc;fill-opacity:1;stroke:none;stroke-width:3.97502;stroke-dasharray:none;stroke-opacity:1"
       id="rect3506"
       opacity="0.4"
       width="48"
       height="48"
       x="0"
       y="0" />
    <path
       id="rect3131"
       style="color:#ffffff;fill:#ffffff;stroke:none"
       d="M 0 0 L 0 0.9609375 L 0 23 L 0 25 L 0 48 L 48 48 L 48 25 L 48 23 L 48 0 L 0 0 z M 1.9199219 1.9199219 L 23 1.9199219 L 23 23 L 1.9199219 23 L 1.9199219 1.9199219 z M 25 1.9199219 L 46.080078 1.9199219 L 46.080078 23 L 25 23 L 25 1.9199219 z M 1.9199219 25 L 23 25 L 23 46.080078 L 1.9199219 46.080078 L 1.9199219 25 z M 25 25 L 46.080078 25 L 46.080078 46.080078 L 25 46.080078 L 25 25 z " />
  </g>
</svg>
